<?xml version="1.0" encoding="utf-8"?>
<!-- Generator: Adobe Illustrator 26.1.0, SVG Export Plug-In . SVG Version: 6.00 Build 0)  -->
<svg version="1.1" id="Capa_1" xmlns="http://www.w3.org/2000/svg" xmlns:xlink="http://www.w3.org/1999/xlink" x="0px" y="0px"
	 viewBox="0 0 302 158" style="enable-background:new 0 0 302 158;" xml:space="preserve">
<style type="text/css">
	.st0{font-family:'ArialMT';}
	.st1{font-size:22px;}
	.st2{fill:#FCDC7D;stroke:#000000;stroke-width:2;stroke-miterlimit:10;}
	.st3{fill:#14B047;}
	.st4{fill:#FFFFFF;}
	.st5{font-size:20px;}
</style>
<text transform="matrix(1 0 0 1 38.9487 25.4248)" class="st0 st1">5/0/0</text>
<text transform="matrix(1 0 0 1 279.9487 28.4248)" class="st0 st1">5</text>
<path class="st2" d="M263.6,146H38.4C21.6,146,8,132.4,8,115.6V62.4C8,45.6,21.6,32,38.4,32h225.1c16.8,0,30.4,13.6,30.4,30.4v53.1
	C294,132.4,280.4,146,263.6,146z"/>
<g id="Comprobar">
	<g>
		<path class="st3" d="M282,41c-3.3-3.3-7.7-5-12-5s-8.7,1.7-12,5c-6.6,6.6-6.6,17.4,0,24c3.3,3.3,7.7,5,12,5s8.7-1.7,12-5
			C288.7,58.4,288.7,47.6,282,41z"/>
		<polygon class="st4" points="267.3,53.9 263.3,49.6 258.9,54 258.9,54 267.3,62.4 281.4,48.3 278.1,45 		"/>
	</g>
</g>
<text transform="matrix(1 0 0 1 93.7686 79.4248)"><tspan x="0" y="0" class="st0 st5">PRÁCTICAS</tspan><tspan x="-47.8" y="24" class="st0 st5">PREPROFESIONALES</tspan><tspan x="-27.2" y="48" class="st0 st5">EMPRESARIALES</tspan></text>
</svg>
